<svg width="32" height="32" viewBox="0 0 32 32" fill="none" xmlns="http://www.w3.org/2000/svg">
<path d="M14.3333 5.99995H19.3333L24.8166 0.499955C24.9716 0.343741 25.1559 0.219751 25.359 0.135136C25.5621 0.0505217 25.7799 0.00695801 26 0.00695801C26.22 0.00695801 26.4378 0.0505217 26.6409 0.135136C26.844 0.219751 27.0284 0.343741 27.1833 0.499955L31.4833 4.81662C31.7937 5.12889 31.968 5.55131 31.968 5.99162C31.968 6.43193 31.7937 6.85435 31.4833 7.16662L27.6666 11H14.3333V14.3333C14.3333 14.7753 14.1577 15.1992 13.8451 15.5118C13.5326 15.8244 13.1087 16 12.6666 16C12.2246 16 11.8007 15.8244 11.4881 15.5118C11.1756 15.1992 11 14.7753 11 14.3333V9.33329C11 8.44923 11.3512 7.60139 11.9763 6.97626C12.6014 6.35114 13.4492 5.99995 14.3333 5.99995ZM4.3333 14.3333V21L0.516637 24.8166C0.206219 25.1289 0.0319824 25.5513 0.0319824 25.9916C0.0319824 26.4319 0.206219 26.8544 0.516637 27.1666L4.81664 31.4833C4.97157 31.6395 5.15591 31.7635 5.35901 31.8481C5.56211 31.9327 5.77995 31.9763 5.99997 31.9763C6.21999 31.9763 6.43783 31.9327 6.64093 31.8481C6.84403 31.7635 7.02836 31.6395 7.1833 31.4833L14.3333 24.3333H21C21.442 24.3333 21.8659 24.1577 22.1785 23.8451C22.491 23.5326 22.6666 23.1086 22.6666 22.6666V21H24.3333C24.7753 21 25.1993 20.8244 25.5118 20.5118C25.8244 20.1992 26 19.7753 26 19.3333V17.6666H27.6666C28.1087 17.6666 28.5326 17.491 28.8451 17.1785C29.1577 16.8659 29.3333 16.442 29.3333 16V14.3333H17.6666V16C17.6666 16.884 17.3154 17.7319 16.6903 18.357C16.0652 18.9821 15.2174 19.3333 14.3333 19.3333H11C10.1159 19.3333 9.26807 18.9821 8.64295 18.357C8.01783 17.7319 7.66664 16.884 7.66664 16V11L4.3333 14.3333Z" fill="#292E3D"/>
</svg>
